<svg version="1.1" id="Layer_1" xmlns="http://www.w3.org/2000/svg" xmlns:xlink="http://www.w3.org/1999/xlink" x="0px" y="0px"
	 width="100%" viewBox="0 0 3071 992" enable-background="new 0 0 3071 992" xml:space="preserve">
<path fill="#FFFFFF" opacity="1.000000" stroke="none" 
	d="
M2530.000000,993.000000 
	C1686.666626,993.000000 843.833313,993.000000 1.000000,993.000000 
	C1.000000,662.333313 1.000000,331.666656 1.000000,1.000000 
	C1024.666626,1.000000 2048.333252,1.000000 3072.000000,1.000000 
	C3072.000000,331.666656 3072.000000,662.333313 3072.000000,993.000000 
	C2891.500000,993.000000 2711.000000,993.000000 2530.000000,993.000000 
M668.196716,507.774231 
	C669.467407,502.267548 670.611389,496.727905 672.033020,491.260468 
	C675.942566,476.225311 679.526001,461.084595 684.081665,446.244476 
	C688.062805,433.275696 696.980530,424.446259 710.488708,421.547058 
	C718.972473,419.726196 727.698242,418.419220 736.355530,418.144897 
	C755.832275,417.527802 775.333862,417.690826 794.825562,417.560120 
	C796.112122,417.551514 797.400024,417.743195 798.972961,417.863586 
	C798.143250,421.842865 797.476440,425.531189 796.599121,429.168732 
	C790.791626,453.247833 784.886841,477.303619 779.140991,501.397339 
	C777.856628,506.782837 774.568359,510.193420 769.677063,512.145874 
	C762.450073,515.030701 755.224060,516.205444 747.593628,512.911438 
	C740.510864,509.853790 738.211670,506.189484 739.329041,498.553925 
	C740.410950,491.160522 741.450073,483.733734 741.904846,476.284790 
	C742.234436,470.887817 736.752747,467.858063 732.234924,470.876892 
	C730.207947,472.231354 728.261047,474.723389 727.684509,477.048096 
	C725.599915,485.453552 724.078247,494.000427 722.406128,502.506104 
	C718.001526,524.911011 713.629456,547.322388 709.217590,569.868042 
	C763.339661,569.868042 817.250854,569.868042 871.405762,569.868042 
	C871.405762,496.659668 871.405762,423.746948 871.405762,350.593719 
	C726.287598,350.593719 581.388855,350.593719 436.337524,350.593719 
	C436.337524,423.877960 436.337524,496.917816 436.337524,569.799500 
	C489.056763,569.799500 541.437439,569.799500 594.110413,569.799500 
	C586.553772,536.535950 579.090271,503.682587 571.541565,470.454132 
	C569.526611,470.454132 567.713440,470.454132 565.900269,470.454132 
	C552.734680,470.454071 539.566772,470.316650 526.405090,470.543854 
	C522.806213,470.605957 521.567322,469.376556 520.848083,465.983093 
	C518.917847,456.876434 516.523804,447.868805 514.372742,438.807922 
	C512.741577,431.936890 511.200623,425.044434 509.478119,417.545898 
	C512.079712,417.545898 513.876099,417.545929 515.672485,417.545929 
	C541.336975,417.545929 567.001526,417.545837 592.666016,417.545929 
	C599.665466,417.545959 606.669006,417.420532 613.660889,417.651001 
	C615.087708,417.697998 617.431335,418.823517 617.719116,419.891815 
	C619.727783,427.348724 621.338196,434.914429 623.017212,442.458405 
	C627.768860,463.807404 632.373596,485.189850 637.261414,506.507507 
	C641.771301,526.176514 646.565491,545.780334 651.259705,565.406860 
	C651.645569,567.020203 652.225525,568.587097 652.715332,570.175537 
	C653.138916,570.133118 653.562500,570.090698 653.986084,570.048279 
	C655.656616,562.988464 657.376709,555.939941 658.987122,548.866394 
	C662.041199,535.452026 665.032471,522.023438 668.196716,507.774231 
M2175.000000,606.500000 
	C2175.000000,547.873901 2175.000000,489.247772 2175.000000,429.377533 
	C2176.630615,432.017029 2177.574219,433.345276 2178.317627,434.777527 
	C2193.224121,463.502777 2208.117188,492.235138 2222.992676,520.976562 
	C2232.408936,539.170227 2241.797852,557.378174 2251.188965,575.584839 
	C2262.226562,596.983276 2273.253418,618.387268 2284.256348,639.733521 
	C2308.120117,639.733521 2331.883301,639.733521 2355.701416,639.733521 
	C2355.701416,544.074768 2355.701416,448.682709 2355.701416,353.333984 
	C2337.005859,353.333984 2318.610840,353.333984 2299.904053,353.333984 
	C2299.904053,423.879150 2299.904053,494.090973 2299.904053,565.419189 
	C2263.058350,493.964569 2226.734131,423.521240 2190.485840,353.225037 
	C2166.660889,353.225037 2143.048584,353.225037 2119.257324,353.225037 
	C2119.257324,448.842224 2119.257324,544.234253 2119.257324,639.707214 
	C2137.910400,639.707214 2156.304932,639.707214 2175.000000,639.707214 
	C2175.000000,628.777893 2175.000000,618.138916 2175.000000,606.500000 
M1014.000000,604.500000 
	C1014.000000,616.259949 1014.000000,628.019836 1014.000000,640.000000 
	C1040.969360,640.000000 1067.283691,639.916138 1093.597168,640.031860 
	C1109.122681,640.100098 1124.542847,639.481140 1139.947388,637.111206 
	C1162.138550,633.697205 1183.334473,627.745667 1202.717773,616.067383 
	C1218.748535,606.408997 1231.631836,593.702942 1241.100098,577.534119 
	C1254.309692,554.975830 1259.188721,530.134583 1259.764893,504.509094 
	C1260.081421,490.428375 1258.534058,476.231354 1256.874878,462.199341 
	C1254.755615,444.275787 1248.701294,427.497559 1238.776855,412.352203 
	C1226.254517,393.242218 1209.254150,379.344788 1188.389282,370.027924 
	C1169.959106,361.798248 1150.524170,357.177063 1130.633301,355.214447 
	C1113.545044,353.528351 1096.281860,353.370026 1079.086792,353.078247 
	C1059.260132,352.741760 1039.423340,353.000000 1019.590881,353.000000 
	C1017.822632,353.000000 1016.054382,353.000000 1014.000000,353.000000 
	C1014.000000,436.894958 1014.000000,520.197449 1014.000000,604.500000 
M1760.337646,503.052704 
	C1750.812378,496.874451 1740.178345,493.411102 1728.539062,491.003906 
	C1733.872803,489.113403 1738.393311,487.795837 1742.680908,485.939880 
	C1757.451904,479.545929 1769.078979,469.479004 1775.597656,454.640289 
	C1783.293579,437.121979 1783.048584,418.857452 1777.312134,400.925079 
	C1770.523926,379.705139 1754.904785,367.111847 1734.378296,360.002075 
	C1720.673706,355.255157 1706.367188,353.366547 1692.045288,353.155396 
	C1658.888428,352.666626 1625.719604,353.000000 1592.555542,353.000000 
	C1590.790771,353.000000 1589.025879,353.000000 1587.337036,353.000000 
	C1587.337036,449.007629 1587.337036,544.397217 1587.337036,640.000000 
	C1589.488647,640.000000 1591.307373,640.000000 1593.126099,640.000000 
	C1624.790283,640.000000 1656.456299,639.787720 1688.117798,640.080383 
	C1706.810669,640.253174 1724.958862,637.897400 1742.382080,630.986572 
	C1755.741211,625.687561 1766.979248,617.551025 1775.643433,605.919983 
	C1782.995728,596.049988 1787.440552,584.856445 1788.711182,572.881958 
	C1789.756714,563.027283 1789.919556,552.722473 1788.219482,543.011841 
	C1785.247925,526.040161 1775.375366,512.976990 1760.337646,503.052704 
M2419.000000,477.500000 
	C2419.000000,531.589966 2419.000000,585.679932 2419.000000,639.636536 
	C2439.053223,639.636536 2458.448975,639.636536 2478.147461,639.636536 
	C2478.147461,596.040527 2478.147461,552.807129 2478.147461,508.575592 
	C2479.544678,510.462280 2480.343506,511.587555 2481.189453,512.676208 
	C2491.499512,525.945801 2501.812988,539.212769 2512.132324,552.474976 
	C2522.859619,566.261597 2533.575439,580.057312 2544.331299,593.821716 
	C2555.492676,608.105530 2566.819580,622.263306 2577.763428,636.711426 
	C2579.637451,639.185730 2581.306396,640.053589 2584.182617,640.042542 
	C2604.848145,639.963013 2625.514404,640.000000 2646.180420,640.000000 
	C2649.596436,640.000000 2653.012451,640.000000 2657.137695,640.000000 
	C2655.925781,638.193237 2655.234131,636.938965 2654.334473,635.857666 
	C2649.092285,629.555054 2643.705322,623.370544 2638.544922,617.002136 
	C2626.193604,601.760620 2614.009033,586.384033 2601.629150,571.166077 
	C2590.675049,557.700806 2579.492676,544.421448 2568.514160,530.975769 
	C2558.794189,519.071472 2548.926514,507.269745 2539.680420,495.003326 
	C2533.741699,487.124634 2532.465088,490.155212 2539.811279,482.685913 
	C2540.395264,482.092224 2541.021973,481.535583 2541.564453,480.906219 
	C2551.858887,468.964417 2562.071533,456.951324 2572.452148,445.085266 
	C2580.914062,435.412567 2589.645996,425.976593 2598.130615,416.323334 
	C2611.805908,400.764404 2625.387939,385.123138 2638.984619,369.495026 
	C2643.447266,364.365479 2647.832764,359.168823 2652.296387,353.952942 
	C2651.503906,353.408264 2651.260010,353.094238 2651.015869,353.093750 
	C2628.185059,353.047516 2605.354004,353.010620 2582.523193,353.048645 
	C2581.488037,353.050354 2580.101807,353.437714 2579.474365,354.161530 
	C2573.997314,360.480286 2568.628418,366.893555 2563.280762,373.323425 
	C2553.752197,384.780518 2544.311279,396.310913 2534.738281,407.730469 
	C2527.040527,416.912811 2519.116211,425.905243 2511.446533,435.110382 
	C2500.495850,448.253845 2489.686279,461.514771 2477.969727,475.754181 
	C2477.969727,434.075226 2477.969727,393.721497 2477.969727,353.293762 
	C2458.087646,353.293762 2438.693115,353.293762 2419.000000,353.293762 
	C2419.000000,394.557831 2419.000000,435.528931 2419.000000,477.500000 
M2005.937012,421.610260 
	C2002.959839,414.262787 1999.922241,406.939148 1997.018555,399.562775 
	C1991.389526,385.263092 1985.910400,370.903564 1980.142212,356.660675 
	C1979.522217,355.129639 1977.414795,353.172638 1975.977295,353.156128 
	C1955.986328,352.926056 1935.991333,352.938721 1915.999512,353.125366 
	C1914.512329,353.139221 1912.232178,354.606354 1911.687378,355.951477 
	C1905.310669,371.693939 1899.179443,387.536041 1893.015869,403.364502 
	C1883.331665,428.232971 1873.700806,453.122253 1863.993652,477.981720 
	C1855.697021,499.228668 1847.307251,520.439270 1838.990601,541.678284 
	C1828.550781,568.338562 1818.146118,595.012512 1807.719238,621.677856 
	C1805.399048,627.611450 1803.049438,633.533447 1800.500732,640.000000 
	C1817.557129,640.000000 1833.704346,640.000000 1849.851562,640.000000 
	C1862.000610,640.000000 1861.843506,639.941467 1866.017700,628.739685 
	C1872.716187,610.763550 1879.645996,592.873657 1886.457764,575.000305 
	C1924.210205,575.000305 1961.527588,575.046875 1998.844604,574.919678 
	C2002.143188,574.908386 2003.081421,576.706604 2003.965332,579.100220 
	C2011.023926,598.213501 2018.028076,617.347412 2025.244751,636.400818 
	C2025.807983,637.887695 2027.846436,639.830261 2029.217285,639.844788 
	C2049.962891,640.064758 2070.711426,639.997437 2091.948730,639.997437 
	C2063.194580,567.143250 2034.629272,494.767029 2005.937012,421.610260 
M1431.500000,353.000000 
	C1381.083374,353.000000 1330.666748,353.000000 1280.350830,353.000000 
	C1280.350830,368.698730 1280.350830,383.759460 1280.350830,399.110992 
	C1323.266724,399.110992 1365.832764,399.110992 1409.027466,399.110992 
	C1399.443359,412.915985 1390.213745,426.234192 1380.959717,439.535461 
	C1360.353760,469.153534 1339.752563,498.774933 1319.116211,528.371826 
	C1305.913940,547.306824 1292.611450,566.172180 1279.458984,585.141602 
	C1277.358643,588.170715 1274.378540,591.529236 1274.254150,594.827820 
	C1273.691406,609.747070 1274.008179,624.699585 1274.008179,639.717041 
	C1341.241211,639.717041 1407.959717,639.717041 1474.684082,639.717041 
	C1474.684082,624.372009 1474.684082,609.311951 1474.684082,593.985352 
	C1428.784912,593.985352 1383.200928,593.985352 1337.062744,593.985352 
	C1337.944336,592.464539 1338.496338,591.329773 1339.210205,590.307983 
	C1353.172485,570.319763 1367.127075,550.326111 1381.137573,530.371582 
	C1400.100708,503.363037 1419.103394,476.382111 1438.102173,449.398438 
	C1446.900635,436.901978 1455.688843,424.398010 1464.560791,411.953827 
	C1469.562988,404.937531 1473.140381,397.883972 1472.228149,388.565125 
	C1471.226562,378.331970 1472.009766,367.924988 1471.989136,357.593842 
	C1471.986328,356.153748 1471.833984,354.714020 1471.735229,353.000000 
	C1458.441284,353.000000 1445.470703,353.000000 1431.500000,353.000000 
M745.499939,643.653503 
	C787.433899,643.653503 829.367798,643.653503 871.247742,643.653503 
	C871.247742,626.006287 871.247742,608.962280 871.247742,591.755249 
	C815.744751,591.755249 760.647949,591.755249 705.113953,591.755249 
	C701.878906,608.958740 698.684937,625.943604 695.354736,643.653259 
	C712.266479,643.653259 728.383179,643.653259 745.499939,643.653503 
M569.500122,591.447510 
	C525.094116,591.447510 480.688049,591.447510 436.307495,591.447510 
	C436.307495,609.117859 436.307495,626.184875 436.307495,643.293457 
	C494.440002,643.293457 552.264160,643.293457 610.710632,643.293457 
	C606.740234,625.730469 602.877686,608.644592 598.990112,591.447876 
	C589.131592,591.447876 579.815857,591.447876 569.500122,591.447510 
z"/>
<path fill="#0066B3" opacity="1.000000" stroke="none" 
	d="
M668.123291,508.187469 
	C665.032471,522.023438 662.041199,535.452026 658.987122,548.866394 
	C657.376709,555.939941 655.656616,562.988464 653.986084,570.048279 
	C653.562500,570.090698 653.138916,570.133118 652.715332,570.175537 
	C652.225525,568.587097 651.645569,567.020203 651.259705,565.406860 
	C646.565491,545.780334 641.771301,526.176514 637.261414,506.507507 
	C632.373596,485.189850 627.768860,463.807404 623.017212,442.458405 
	C621.338196,434.914429 619.727783,427.348724 617.719116,419.891815 
	C617.431335,418.823517 615.087708,417.697998 613.660889,417.651001 
	C606.669006,417.420532 599.665466,417.545959 592.666016,417.545929 
	C567.001526,417.545837 541.336975,417.545929 515.672485,417.545929 
	C513.876099,417.545929 512.079712,417.545898 509.478119,417.545898 
	C511.200623,425.044434 512.741577,431.936890 514.372742,438.807922 
	C516.523804,447.868805 518.917847,456.876434 520.848083,465.983093 
	C521.567322,469.376556 522.806213,470.605957 526.405090,470.543854 
	C539.566772,470.316650 552.734680,470.454071 565.900269,470.454132 
	C567.713440,470.454132 569.526611,470.454132 571.541565,470.454132 
	C579.090271,503.682587 586.553772,536.535950 594.110413,569.799500 
	C541.437439,569.799500 489.056763,569.799500 436.337524,569.799500 
	C436.337524,496.917816 436.337524,423.877960 436.337524,350.593719 
	C581.388855,350.593719 726.287598,350.593719 871.405762,350.593719 
	C871.405762,423.746948 871.405762,496.659668 871.405762,569.868042 
	C817.250854,569.868042 763.339661,569.868042 709.217590,569.868042 
	C713.629456,547.322388 718.001526,524.911011 722.406128,502.506104 
	C724.078247,494.000427 725.599915,485.453552 727.684509,477.048096 
	C728.261047,474.723389 730.207947,472.231354 732.234924,470.876892 
	C736.752747,467.858063 742.234436,470.887817 741.904846,476.284790 
	C741.450073,483.733734 740.410950,491.160522 739.329041,498.553925 
	C738.211670,506.189484 740.510864,509.853790 747.593628,512.911438 
	C755.224060,516.205444 762.450073,515.030701 769.677063,512.145874 
	C774.568359,510.193420 777.856628,506.782837 779.140991,501.397339 
	C784.886841,477.303619 790.791626,453.247833 796.599121,429.168732 
	C797.476440,425.531189 798.143250,421.842865 798.972961,417.863586 
	C797.400024,417.743195 796.112122,417.551514 794.825562,417.560120 
	C775.333862,417.690826 755.832275,417.527802 736.355530,418.144897 
	C727.698242,418.419220 718.972473,419.726196 710.488708,421.547058 
	C696.980530,424.446259 688.062805,433.275696 684.081665,446.244476 
	C679.526001,461.084595 675.942566,476.225311 672.033020,491.260468 
	C670.611389,496.727905 669.467407,502.267548 668.123291,508.187469 
z"/>
<path fill="#0066B3" opacity="1.000000" stroke="none" 
	d="
M2175.000000,607.000000 
	C2175.000000,618.138916 2175.000000,628.777893 2175.000000,639.707214 
	C2156.304932,639.707214 2137.910400,639.707214 2119.257324,639.707214 
	C2119.257324,544.234253 2119.257324,448.842224 2119.257324,353.225037 
	C2143.048584,353.225037 2166.660889,353.225037 2190.485840,353.225037 
	C2226.734131,423.521240 2263.058350,493.964569 2299.904053,565.419189 
	C2299.904053,494.090973 2299.904053,423.879150 2299.904053,353.333984 
	C2318.610840,353.333984 2337.005859,353.333984 2355.701416,353.333984 
	C2355.701416,448.682709 2355.701416,544.074768 2355.701416,639.733521 
	C2331.883301,639.733521 2308.120117,639.733521 2284.256348,639.733521 
	C2273.253418,618.387268 2262.226562,596.983276 2251.188965,575.584839 
	C2241.797852,557.378174 2232.408936,539.170227 2222.992676,520.976562 
	C2208.117188,492.235138 2193.224121,463.502777 2178.317627,434.777527 
	C2177.574219,433.345276 2176.630615,432.017029 2175.000000,429.377533 
	C2175.000000,489.247772 2175.000000,547.873901 2175.000000,607.000000 
z"/>
<path fill="#0066B3" opacity="1.000000" stroke="none" 
	d="
M1014.000000,604.000000 
	C1014.000000,520.197449 1014.000000,436.894958 1014.000000,353.000000 
	C1016.054382,353.000000 1017.822632,353.000000 1019.590881,353.000000 
	C1039.423340,353.000000 1059.260132,352.741760 1079.086792,353.078247 
	C1096.281860,353.370026 1113.545044,353.528351 1130.633301,355.214447 
	C1150.524170,357.177063 1169.959106,361.798248 1188.389282,370.027924 
	C1209.254150,379.344788 1226.254517,393.242218 1238.776855,412.352203 
	C1248.701294,427.497559 1254.755615,444.275787 1256.874878,462.199341 
	C1258.534058,476.231354 1260.081421,490.428375 1259.764893,504.509094 
	C1259.188721,530.134583 1254.309692,554.975830 1241.100098,577.534119 
	C1231.631836,593.702942 1218.748535,606.408997 1202.717773,616.067383 
	C1183.334473,627.745667 1162.138550,633.697205 1139.947388,637.111206 
	C1124.542847,639.481140 1109.122681,640.100098 1093.597168,640.031860 
	C1067.283691,639.916138 1040.969360,640.000000 1014.000000,640.000000 
	C1014.000000,628.019836 1014.000000,616.259949 1014.000000,604.000000 
M1174.055298,563.638245 
	C1178.693848,557.154663 1184.355835,551.164856 1187.769165,544.090149 
	C1196.307251,526.393799 1200.030029,507.705750 1198.193970,487.751770 
	C1196.479370,469.116455 1190.998047,452.270996 1180.048096,437.101532 
	C1169.484497,422.467438 1155.553345,412.419617 1138.866089,405.945465 
	C1129.698853,402.388916 1120.330811,399.881195 1110.383057,399.948090 
	C1098.032349,400.031189 1085.680786,399.968018 1073.262695,399.968018 
	C1073.262695,464.256256 1073.262695,528.946960 1073.262695,593.010254 
	C1088.238892,593.010254 1103.023560,593.971436 1117.634033,592.786621 
	C1139.974976,590.974915 1158.307007,580.043762 1174.055298,563.638245 
z"/>
<path fill="#0066B3" opacity="1.000000" stroke="none" 
	d="
M1760.646240,503.258514 
	C1775.375366,512.976990 1785.247925,526.040161 1788.219482,543.011841 
	C1789.919556,552.722473 1789.756714,563.027283 1788.711182,572.881958 
	C1787.440552,584.856445 1782.995728,596.049988 1775.643433,605.919983 
	C1766.979248,617.551025 1755.741211,625.687561 1742.382080,630.986572 
	C1724.958862,637.897400 1706.810669,640.253174 1688.117798,640.080383 
	C1656.456299,639.787720 1624.790283,640.000000 1593.126099,640.000000 
	C1591.307373,640.000000 1589.488647,640.000000 1587.337036,640.000000 
	C1587.337036,544.397217 1587.337036,449.007629 1587.337036,353.000000 
	C1589.025879,353.000000 1590.790771,353.000000 1592.555542,353.000000 
	C1625.719604,353.000000 1658.888428,352.666626 1692.045288,353.155396 
	C1706.367188,353.366547 1720.673706,355.255157 1734.378296,360.002075 
	C1754.904785,367.111847 1770.523926,379.705139 1777.312134,400.925079 
	C1783.048584,418.857452 1783.293579,437.121979 1775.597656,454.640289 
	C1769.078979,469.479004 1757.451904,479.545929 1742.680908,485.939880 
	C1738.393311,487.795837 1733.872803,489.113403 1728.539062,491.003906 
	C1740.178345,493.411102 1750.812378,496.874451 1760.646240,503.258514 
M1723.569336,577.926636 
	C1723.740723,577.468140 1723.802490,576.917603 1724.099365,576.564514 
	C1734.118164,564.646362 1732.531738,542.063660 1724.311523,530.639771 
	C1716.536255,519.834351 1705.301636,515.857544 1692.966064,514.084900 
	C1686.960205,513.221863 1680.828247,513.199707 1674.748169,512.900757 
	C1665.251465,512.433716 1655.750488,512.054871 1646.320679,511.641754 
	C1646.320679,539.692810 1646.320679,566.724426 1646.320679,593.000183 
	C1661.193726,593.000183 1675.786499,593.717590 1690.272339,592.780640 
	C1702.590210,591.983887 1714.043579,587.612793 1723.569336,577.926636 
M1707.936157,406.432709 
	C1705.260864,405.287598 1702.683716,403.613190 1699.891968,403.095886 
	C1691.255981,401.495544 1682.577759,399.789703 1673.841187,399.154938 
	C1664.641357,398.486511 1655.355225,399.005157 1646.238525,399.005157 
	C1646.238525,422.704651 1646.238525,445.647919 1646.238525,469.000000 
	C1653.929199,469.000000 1661.400146,469.265381 1668.843384,468.924988 
	C1676.207153,468.588135 1683.666260,468.262024 1690.867065,466.837250 
	C1708.893921,463.270386 1722.223022,453.009460 1722.283081,435.597992 
	C1722.324585,423.567230 1719.142212,413.581390 1707.936157,406.432709 
z"/>
<path fill="#0066B3" opacity="1.000000" stroke="none" 
	d="
M2419.000000,477.000000 
	C2419.000000,435.528931 2419.000000,394.557831 2419.000000,353.293762 
	C2438.693115,353.293762 2458.087646,353.293762 2477.969727,353.293762 
	C2477.969727,393.721497 2477.969727,434.075226 2477.969727,475.754181 
	C2489.686279,461.514771 2500.495850,448.253845 2511.446533,435.110382 
	C2519.116211,425.905243 2527.040527,416.912811 2534.738281,407.730469 
	C2544.311279,396.310913 2553.752197,384.780518 2563.280762,373.323425 
	C2568.628418,366.893555 2573.997314,360.480286 2579.474365,354.161530 
	C2580.101807,353.437714 2581.488037,353.050354 2582.523193,353.048645 
	C2605.354004,353.010620 2628.185059,353.047516 2651.015869,353.093750 
	C2651.260010,353.094238 2651.503906,353.408264 2652.296387,353.952942 
	C2647.832764,359.168823 2643.447266,364.365479 2638.984619,369.495026 
	C2625.387939,385.123138 2611.805908,400.764404 2598.130615,416.323334 
	C2589.645996,425.976593 2580.914062,435.412567 2572.452148,445.085266 
	C2562.071533,456.951324 2551.858887,468.964417 2541.564453,480.906219 
	C2541.021973,481.535583 2540.395264,482.092224 2539.811279,482.685913 
	C2532.465088,490.155212 2533.741699,487.124634 2539.680420,495.003326 
	C2548.926514,507.269745 2558.794189,519.071472 2568.514160,530.975769 
	C2579.492676,544.421448 2590.675049,557.700806 2601.629150,571.166077 
	C2614.009033,586.384033 2626.193604,601.760620 2638.544922,617.002136 
	C2643.705322,623.370544 2649.092285,629.555054 2654.334473,635.857666 
	C2655.234131,636.938965 2655.925781,638.193237 2657.137695,640.000000 
	C2653.012451,640.000000 2649.596436,640.000000 2646.180420,640.000000 
	C2625.514404,640.000000 2604.848145,639.963013 2584.182617,640.042542 
	C2581.306396,640.053589 2579.637451,639.185730 2577.763428,636.711426 
	C2566.819580,622.263306 2555.492676,608.105530 2544.331299,593.821716 
	C2533.575439,580.057312 2522.859619,566.261597 2512.132324,552.474976 
	C2501.812988,539.212769 2491.499512,525.945801 2481.189453,512.676208 
	C2480.343506,511.587555 2479.544678,510.462280 2478.147461,508.575592 
	C2478.147461,552.807129 2478.147461,596.040527 2478.147461,639.636536 
	C2458.448975,639.636536 2439.053223,639.636536 2419.000000,639.636536 
	C2419.000000,585.679932 2419.000000,531.589966 2419.000000,477.000000 
z"/>
<path fill="#0066B3" opacity="1.000000" stroke="none" 
	d="
M2006.000488,422.000549 
	C2034.629272,494.767029 2063.194580,567.143250 2091.948730,639.997437 
	C2070.711426,639.997437 2049.962891,640.064758 2029.217285,639.844788 
	C2027.846436,639.830261 2025.807983,637.887695 2025.244751,636.400818 
	C2018.028076,617.347412 2011.023926,598.213501 2003.965332,579.100220 
	C2003.081421,576.706604 2002.143188,574.908386 1998.844604,574.919678 
	C1961.527588,575.046875 1924.210205,575.000305 1886.457764,575.000305 
	C1879.645996,592.873657 1872.716187,610.763550 1866.017700,628.739685 
	C1861.843506,639.941467 1862.000610,640.000000 1849.851562,640.000000 
	C1833.704346,640.000000 1817.557129,640.000000 1800.500732,640.000000 
	C1803.049438,633.533447 1805.399048,627.611450 1807.719238,621.677856 
	C1818.146118,595.012512 1828.550781,568.338562 1838.990601,541.678284 
	C1847.307251,520.439270 1855.697021,499.228668 1863.993652,477.981720 
	C1873.700806,453.122253 1883.331665,428.232971 1893.015869,403.364502 
	C1899.179443,387.536041 1905.310669,371.693939 1911.687378,355.951477 
	C1912.232178,354.606354 1914.512329,353.139221 1915.999512,353.125366 
	C1935.991333,352.938721 1955.986328,352.926056 1975.977295,353.156128 
	C1977.414795,353.172638 1979.522217,355.129639 1980.142212,356.660675 
	C1985.910400,370.903564 1991.389526,385.263092 1997.018555,399.562775 
	C1999.922241,406.939148 2002.959839,414.262787 2006.000488,422.000549 
M1955.000854,441.513428 
	C1951.716187,432.363464 1948.431641,423.213470 1944.842651,413.215332 
	C1930.736206,452.524628 1917.053955,490.651581 1903.333374,528.885498 
	C1930.943481,528.885498 1958.213257,528.885498 1985.866211,528.885498 
	C1975.547485,499.882690 1965.307617,471.101837 1955.000854,441.513428 
z"/>
<path fill="#0066B3" opacity="1.000000" stroke="none" 
	d="
M1432.000000,353.000000 
	C1445.470703,353.000000 1458.441284,353.000000 1471.735229,353.000000 
	C1471.833984,354.714020 1471.986328,356.153748 1471.989136,357.593842 
	C1472.009766,367.924988 1471.226562,378.331970 1472.228149,388.565125 
	C1473.140381,397.883972 1469.562988,404.937531 1464.560791,411.953827 
	C1455.688843,424.398010 1446.900635,436.901978 1438.102173,449.398438 
	C1419.103394,476.382111 1400.100708,503.363037 1381.137573,530.371582 
	C1367.127075,550.326111 1353.172485,570.319763 1339.210205,590.307983 
	C1338.496338,591.329773 1337.944336,592.464539 1337.062744,593.985352 
	C1383.200928,593.985352 1428.784912,593.985352 1474.684082,593.985352 
	C1474.684082,609.311951 1474.684082,624.372009 1474.684082,639.717041 
	C1407.959717,639.717041 1341.241211,639.717041 1274.008179,639.717041 
	C1274.008179,624.699585 1273.691406,609.747070 1274.254150,594.827820 
	C1274.378540,591.529236 1277.358643,588.170715 1279.458984,585.141602 
	C1292.611450,566.172180 1305.913940,547.306824 1319.116211,528.371826 
	C1339.752563,498.774933 1360.353760,469.153534 1380.959717,439.535461 
	C1390.213745,426.234192 1399.443359,412.915985 1409.027466,399.110992 
	C1365.832764,399.110992 1323.266724,399.110992 1280.350830,399.110992 
	C1280.350830,383.759460 1280.350830,368.698730 1280.350830,353.000000 
	C1330.666748,353.000000 1381.083374,353.000000 1432.000000,353.000000 
z"/>
<path fill="#FF6600" opacity="1.000000" stroke="none" 
	d="
M744.999878,643.653381 
	C728.383179,643.653259 712.266479,643.653259 695.354736,643.653259 
	C698.684937,625.943604 701.878906,608.958740 705.113953,591.755249 
	C760.647949,591.755249 815.744751,591.755249 871.247742,591.755249 
	C871.247742,608.962280 871.247742,626.006287 871.247742,643.653503 
	C829.367798,643.653503 787.433899,643.653503 744.999878,643.653381 
z"/>
<path fill="#FF6600" opacity="1.000000" stroke="none" 
	d="
M570.000122,591.447693 
	C579.815857,591.447876 589.131592,591.447876 598.990112,591.447876 
	C602.877686,608.644592 606.740234,625.730469 610.710632,643.293457 
	C552.264160,643.293457 494.440002,643.293457 436.307495,643.293457 
	C436.307495,626.184875 436.307495,609.117859 436.307495,591.447510 
	C480.688049,591.447510 525.094116,591.447510 570.000122,591.447693 
z"/>
<path fill="#FFFFFF" opacity="1.000000" stroke="none" 
	d="
M1174.000732,563.994873 
	C1158.307007,580.043762 1139.974976,590.974915 1117.634033,592.786621 
	C1103.023560,593.971436 1088.238892,593.010254 1073.262695,593.010254 
	C1073.262695,528.946960 1073.262695,464.256256 1073.262695,399.968018 
	C1085.680786,399.968018 1098.032349,400.031189 1110.383057,399.948090 
	C1120.330811,399.881195 1129.698853,402.388916 1138.866089,405.945465 
	C1155.553345,412.419617 1169.484497,422.467438 1180.048096,437.101532 
	C1190.998047,452.270996 1196.479370,469.116455 1198.193970,487.751770 
	C1200.030029,507.705750 1196.307251,526.393799 1187.769165,544.090149 
	C1184.355835,551.164856 1178.693848,557.154663 1174.000732,563.994873 
z"/>
<path fill="#FFFFFF" opacity="1.000000" stroke="none" 
	d="
M1723.305054,578.182312 
	C1714.043579,587.612793 1702.590210,591.983887 1690.272339,592.780640 
	C1675.786499,593.717590 1661.193726,593.000183 1646.320679,593.000183 
	C1646.320679,566.724426 1646.320679,539.692810 1646.320679,511.641754 
	C1655.750488,512.054871 1665.251465,512.433716 1674.748169,512.900757 
	C1680.828247,513.199707 1686.960205,513.221863 1692.966064,514.084900 
	C1705.301636,515.857544 1716.536255,519.834351 1724.311523,530.639771 
	C1732.531738,542.063660 1734.118164,564.646362 1724.099365,576.564514 
	C1723.802490,576.917603 1723.740723,577.468140 1723.305054,578.182312 
z"/>
<path fill="#FFFFFF" opacity="1.000000" stroke="none" 
	d="
M1708.219727,406.677490 
	C1719.142212,413.581390 1722.324585,423.567230 1722.283081,435.597992 
	C1722.223022,453.009460 1708.893921,463.270386 1690.867065,466.837250 
	C1683.666260,468.262024 1676.207153,468.588135 1668.843384,468.924988 
	C1661.400146,469.265381 1653.929199,469.000000 1646.238525,469.000000 
	C1646.238525,445.647919 1646.238525,422.704651 1646.238525,399.005157 
	C1655.355225,399.005157 1664.641357,398.486511 1673.841187,399.154938 
	C1682.577759,399.789703 1691.255981,401.495544 1699.891968,403.095886 
	C1702.683716,403.613190 1705.260864,405.287598 1708.219727,406.677490 
z"/>
<path fill="#FFFFFF" opacity="1.000000" stroke="none" 
	d="
M1955.034424,441.917236 
	C1965.307617,471.101837 1975.547485,499.882690 1985.866211,528.885498 
	C1958.213257,528.885498 1930.943481,528.885498 1903.333374,528.885498 
	C1917.053955,490.651581 1930.736206,452.524628 1944.842651,413.215332 
	C1948.431641,423.213470 1951.716187,432.363464 1955.034424,441.917236 
z"/>
</svg>